<svg width="18" height="18" viewBox="0 0 18 18" fill="none" xmlns="http://www.w3.org/2000/svg">
<g clip-path="url(#clip0_100_2066)">
<path d="M9 0C4.0371 0 0 4.0371 0 9C0 13.9629 4.0371 18 9 18C13.9629 18 18 13.9622 18 9C18 4.0378 13.9629 0 9 0Z" fill="white"/>
<path d="M12.4859 8.24013H9.69735V5.4516C9.69735 5.06678 9.38573 4.75446 9.0002 4.75446C8.61468 4.75446 8.30305 5.06678 8.30305 5.4516V8.24013H5.51453C5.12901 8.24013 4.81738 8.55246 4.81738 8.93728C4.81738 9.3221 5.12901 9.63442 5.51453 9.63442H8.30305V12.4229C8.30305 12.8078 8.61468 13.1201 9.0002 13.1201C9.38573 13.1201 9.69735 12.8078 9.69735 12.4229V9.63442H12.4859C12.8714 9.63442 13.183 9.3221 13.183 8.93728C13.183 8.55246 12.8714 8.24013 12.4859 8.24013Z" fill="#04ABC9"/>
</g>
<defs>
<clipPath id="clip0_100_2066">
<rect width="18" height="18" fill="white"/>
</clipPath>
</defs>
</svg>
