<svg width="492" height="492" viewBox="0 0 492 492" fill="none" xmlns="http://www.w3.org/2000/svg">
<g clip-path="url(#clip0_69_47)">
<path d="M293.392 245.896L109.336 429.96C104.268 435.016 101.48 441.776 101.48 448.984C101.48 456.196 104.268 462.952 109.336 468.016L125.464 484.136C130.524 489.208 137.288 492 144.496 492C151.704 492 158.46 489.208 163.524 484.136L382.672 264.992C387.756 259.912 390.54 253.124 390.52 245.908C390.54 238.66 387.76 231.88 382.672 226.796L163.728 7.86399C158.664 2.79199 151.908 -2.08601e-05 144.696 -2.14906e-05C137.488 -2.21208e-05 130.732 2.79199 125.664 7.86399L109.54 23.984C99.0481 34.476 99.0481 51.556 109.54 62.044L293.392 245.896Z" fill="#667085"/>
</g>
<defs>
<clipPath id="clip0_69_47">
<rect width="492" height="492" fill="white" transform="translate(492 492) rotate(-180)"/>
</clipPath>
</defs>
</svg>
