<svg width="16" height="16" viewBox="0 0 16 16" fill="none" xmlns="http://www.w3.org/2000/svg">
<path fill-rule="evenodd" clip-rule="evenodd" d="M4.64346 3.4386V2.73684C4.64346 1.96171 5.24724 1.33334 5.99203 1.33334H10.0378C10.7826 1.33334 11.3863 1.96171 11.3863 2.73684V3.4386H13.4092C13.7816 3.4386 14.0835 3.75279 14.0835 4.14035C14.0835 4.52792 13.7816 4.84211 13.4092 4.84211H12.7349V12.5614C12.7349 13.7241 11.8293 14.6667 10.7121 14.6667H5.31775C4.20055 14.6667 3.29488 13.7241 3.29488 12.5614V4.84211H2.62059C2.24819 4.84211 1.94631 4.52792 1.94631 4.14035C1.94631 3.75279 2.24819 3.4386 2.62059 3.4386H4.64346ZM5.99203 2.73684H10.0378V3.4386H5.99203V2.73684ZM4.64346 4.84211H11.3863V12.5614C11.3863 12.949 11.0845 13.2632 10.7121 13.2632H5.31775C4.94535 13.2632 4.64346 12.949 4.64346 12.5614V4.84211Z" fill="#7D879C"/>
<path d="M10.0378 6.24562H8.68919V11.8597H10.0378V6.24562Z" fill="#7D879C"/>
<path d="M7.34061 6.24562H5.99203V11.8597H7.34061V6.24562Z" fill="#7D879C"/>
</svg>
