<svg width="16" height="16" viewBox="0 0 16 16" fill="none" xmlns="http://www.w3.org/2000/svg">
<g clip-path="url(#clip0_181_839)">
<g clip-path="url(#clip1_181_839)">
<path d="M8.42683 3.61333L1.56683 10.4733C1.31405 10.7266 1.15429 11.0578 1.1135 11.4133L0.840165 13.8133C0.822347 13.9821 0.840331 14.1527 0.892941 14.3141C0.945552 14.4754 1.03161 14.6239 1.14548 14.7497C1.25936 14.8755 1.3985 14.9759 1.55381 15.0443C1.70913 15.1127 1.87712 15.1476 2.04683 15.1467H2.18683L4.58683 14.8733C4.9409 14.8324 5.27144 14.6753 5.52683 14.4267L12.3868 7.55999L8.42683 3.61333Z" fill="#8992A4"/>
<path d="M14.7066 3.03333L12.9666 1.29333C12.8211 1.14719 12.6481 1.03123 12.4576 0.952112C12.2671 0.87299 12.0629 0.83226 11.8566 0.83226C11.6504 0.83226 11.4461 0.87299 11.2557 0.952112C11.0652 1.03123 10.8922 1.14719 10.7466 1.29333L9.1333 2.90666L13.0933 6.86666L14.7066 5.25333C14.8528 5.10777 14.9687 4.93479 15.0479 4.74431C15.127 4.55382 15.1677 4.34959 15.1677 4.14333C15.1677 3.93707 15.127 3.73284 15.0479 3.54235C14.9687 3.35187 14.8528 3.17889 14.7066 3.03333Z" fill="#8992A4"/>
</g>
</g>
<defs>
<clipPath id="clip0_181_839">
<rect width="16" height="16" fill="white"/>
</clipPath>
<clipPath id="clip1_181_839">
<rect width="16" height="16" fill="white"/>
</clipPath>
</defs>
</svg>
