<svg width="25" height="24" viewBox="0 0 25 24" fill="none" xmlns="http://www.w3.org/2000/svg">
<path fill-rule="evenodd" clip-rule="evenodd" d="M17.8333 9.71846C14.8889 9.71846 12.5 12.0874 12.5 15.0073C12.5 17.9273 14.8889 20.2962 17.8333 20.2962C20.7778 20.2962 23.1667 17.9273 23.1667 15.0073C23.1667 12.0874 20.7778 9.71846 17.8333 9.71846ZM17.3706 15.0261V13.3826C17.3706 13.2373 17.4291 13.098 17.5333 12.9952C17.6375 12.8925 17.7787 12.8348 17.926 12.8348C18.0733 12.8348 18.2146 12.8925 18.3188 12.9952C18.4229 13.098 18.4815 13.2373 18.4815 13.3826V15.0261H19.0369C19.1479 15.0254 19.2565 15.0576 19.3488 15.1184C19.4411 15.1792 19.5128 15.2659 19.5547 15.3674C19.5965 15.4688 19.6066 15.5802 19.5836 15.6873C19.5606 15.7945 19.5056 15.8923 19.4257 15.9683L18.276 17.0639C18.1702 17.1645 18.0284 17.2196 17.8816 17.2173C17.7351 17.2153 17.5954 17.1562 17.4928 17.053L16.4153 15.9573C16.3385 15.8801 16.2867 15.7822 16.2662 15.6759C16.2458 15.5697 16.2577 15.4598 16.3005 15.3602C16.3433 15.2606 16.415 15.1757 16.5066 15.1163C16.5982 15.0568 16.7055 15.0254 16.8152 15.0261H17.3706Z" fill="#04ABC9"/>
<path d="M3.71239 3.64108C4.0135 3.04387 4.62905 2.66667 5.30276 2.66667H9.5372V7.36791H1.8335L3.71239 3.64108ZM10.7224 7.36791V2.66667H14.9557C15.6298 2.66667 16.2446 3.04387 16.5483 3.64108L18.4261 7.36791H10.7224ZM17.2409 8.56892C13.9187 8.86642 11.315 11.6357 11.315 15.0074C11.315 16.5684 11.8742 18.0044 12.8039 19.121H4.20387C2.89461 19.121 1.8335 18.0669 1.8335 16.7704V8.54321H17.2409V8.56892Z" fill="#04ABC9"/>
</svg>
