<svg width="236" height="236" viewBox="0 0 236 236" fill="none" xmlns="http://www.w3.org/2000/svg">
<path d="M117.79 235.58C182.844 235.58 235.58 182.844 235.58 117.79C235.58 52.7364 182.844 0 117.79 0C52.7364 0 0 52.7364 0 117.79C0 182.844 52.7364 235.58 117.79 235.58Z" fill="url(#paint0_linear_70_55)"/>
<path d="M118 30.1499C69.6201 30.1499 30.3901 69.3599 30.3701 117.75C30.3701 117.75 30.3701 117.78 30.3701 117.8C30.3701 137.38 43.7701 153.83 61.8801 158.5C63.7101 158.98 65.5901 159.33 67.5201 159.54C69.1101 159.73 70.7401 159.83 72.3901 159.83C95.6001 159.83 114.42 141.02 114.42 117.8C114.42 116.14 114.32 114.52 114.13 112.93C111.72 92.0099 93.9601 75.7599 72.3901 75.7599L72.0801 96.0199C84.0901 96.0199 92.1901 105.77 92.1901 117.8C92.1901 129.81 82.4401 139.56 70.4301 139.56C58.7801 139.56 49.2701 130.42 48.7001 118.91C48.6801 118.54 48.6701 118.18 48.6701 117.79C48.6701 117.41 48.6901 117.04 48.7001 116.68C48.8901 102.93 53.1301 90.1299 60.2301 79.4399L62.0801 77.0699H62.1001C74.6901 59.7199 95.1201 48.4599 118.19 48.4599C135.06 48.4599 150.51 54.4799 162.52 64.5099L162.43 64.5999C177.64 77.2999 187.31 96.4099 187.31 117.79C187.31 156.07 156.28 187.1 117.98 187.1C96.6201 187.1 77.5201 177.43 64.7901 162.25L51.6901 175.35C67.7601 193.78 91.4201 205.43 117.79 205.43C166.19 205.43 205.42 166.19 205.42 117.8C205.42 91.4699 193.82 67.8699 175.45 51.7899L175.55 51.6899C160.15 38.2899 140.02 30.1499 117.99 30.1499H118Z" fill="white"/>
<defs>
<linearGradient id="paint0_linear_70_55" x1="-1.66" y1="117.79" x2="233.93" y2="117.79" gradientUnits="userSpaceOnUse">
<stop offset="0.3" stop-color="#87C65B"/>
<stop offset="0.54" stop-color="#5BB578"/>
<stop offset="0.96" stop-color="#0797B1"/>
</linearGradient>
</defs>
</svg>
