<svg width="104" height="49" viewBox="0 0 104 49" fill="none" xmlns="http://www.w3.org/2000/svg">
<path d="M78.6417 49C92.1727 49 103.142 38.031 103.142 24.5C103.142 10.969 92.1727 0 78.6417 0C65.1107 0 54.1417 10.969 54.1417 24.5C54.1417 38.031 65.1107 49 78.6417 49Z" fill="url(#paint0_linear_42_51)"/>
<path d="M78.6833 6.27112C68.6204 6.27112 60.4607 14.4267 60.4565 24.4917C60.4565 24.4917 60.4565 24.4979 60.4565 24.5021C60.4565 28.5747 63.2437 31.9962 67.0105 32.9676C67.3912 33.0674 67.7822 33.1402 68.1836 33.1839C68.5144 33.2234 68.8534 33.2442 69.1966 33.2442C74.0242 33.2442 77.9387 29.3318 77.9387 24.5021C77.9387 24.1568 77.9179 23.8198 77.8784 23.4891C77.3771 19.1378 73.6831 15.7579 69.1966 15.7579L69.1321 19.9719C71.6302 19.9719 73.3149 21.9999 73.3149 24.5021C73.3149 27.0001 71.287 29.0281 68.7889 29.0281C66.3657 29.0281 64.3877 27.127 64.2691 24.733C64.265 24.656 64.2629 24.5811 64.2629 24.5C64.2629 24.421 64.2671 24.344 64.2691 24.2691C64.3087 21.4092 65.1906 18.7468 66.6673 16.5233L67.0521 16.0303H67.0563C69.675 12.4216 73.9244 10.0795 78.7229 10.0795C82.2318 10.0795 85.4453 11.3317 87.9434 13.4179L87.9247 13.4366C91.0883 16.0782 93.0996 20.053 93.0996 24.5C93.0996 32.4621 86.6455 38.9163 78.6792 38.9163C74.2364 38.9163 70.2636 36.905 67.6158 33.7476L64.891 36.4723C68.2336 40.3057 73.1548 42.7289 78.6397 42.7289C88.7067 42.7289 96.8665 34.5671 96.8665 24.5021C96.8665 19.0255 94.4537 14.1168 90.6328 10.7722L90.6536 10.7514C87.4504 7.96422 83.2634 6.27112 78.6813 6.27112H78.6833Z" fill="white"/>
<path d="M1.98637 34.617V29.259H1.38734C0.430551 29.259 0 28.8284 0 28.063V27.8716C0 27.0833 0.430551 26.6278 1.38734 26.6278H1.98637V25.1448C1.98637 24.0445 2.53756 23.5182 3.49435 23.5182H3.80635C4.7153 23.5182 5.28937 23.8781 5.28937 25.1448V26.6278H7.34647C8.30325 26.6278 8.71093 27.0355 8.71093 27.8238V28.0152C8.71093 28.8284 8.28036 29.259 7.29862 29.259H5.24152V34.2343C5.24152 35.3824 5.60136 35.9565 6.53319 35.9565C7.22582 35.9565 7.68133 35.6216 8.01621 35.1661C8.13685 35.1183 8.85236 35.5967 8.85236 36.4827C8.85236 36.9611 8.661 37.4145 8.27829 37.7744C7.75206 38.3006 6.89094 38.6355 5.76568 38.6355C3.18235 38.6355 1.98637 37.2481 1.98637 34.617Z" fill="#231F20"/>
<path d="M9.75928 36.0043C9.75928 35.1432 10.6932 34.617 10.7889 34.6648C11.5793 35.5509 12.9188 36.2435 14.641 36.2435C15.9576 36.2435 16.6981 35.788 16.6981 35.0475C16.6981 34.1386 15.7663 33.9701 14.2104 33.6352C12.6068 33.2775 10.0962 32.7741 10.0962 30.143C10.0962 27.8695 11.937 26.3636 14.9759 26.3636C17.3449 26.3636 18.803 27.0334 19.402 27.9423C19.5934 28.2294 19.6891 28.5414 19.6891 28.8763C19.6891 29.7602 18.6595 30.3593 18.6116 30.2886C17.8213 29.3796 16.5296 28.7099 15.1901 28.7099C13.8506 28.7099 13.1808 29.1882 13.1808 29.9308C13.1808 30.769 14.1147 30.9354 15.6685 31.2932C17.3429 31.653 19.974 32.1793 19.974 34.8104C19.974 37.1545 18.1083 38.5668 14.8303 38.5668C12.9645 38.5668 11.6479 38.2091 10.7868 37.6829C10.117 37.2273 9.7572 36.6533 9.7572 36.0085L9.75928 36.0043Z" fill="#231F20"/>
<path d="M27.6034 26.3636C31.287 26.3636 33.7996 28.8763 33.7996 32.512C33.7996 36.1478 31.2641 38.6355 27.5555 38.6355C23.847 38.6355 21.3364 36.1478 21.3364 32.4871C21.3364 28.8263 23.8719 26.3636 27.6034 26.3636ZM27.5555 28.9948C25.6649 28.9948 24.2775 30.455 24.2775 32.4871C24.2775 34.5192 25.6649 35.9794 27.5555 35.9794C29.4462 35.9794 30.8336 34.4963 30.8336 32.51C30.8336 30.5236 29.4691 28.9927 27.5555 28.9927V28.9948Z" fill="#231F20"/>
<path d="M47.6729 26.8899V41.3374C47.6729 42.5812 47.051 42.9639 46.1421 42.9639H45.7823C44.9212 42.9639 44.2992 42.5562 44.2992 41.3374V36.5056C43.5588 37.7494 42.2172 38.6355 40.5199 38.6355C37.3625 38.6355 35.137 36.1478 35.137 32.4871C35.137 28.8263 37.3376 26.3636 40.5678 26.3636C42.3378 26.3636 43.8209 27.2248 44.4199 28.3979V28.35C44.6591 26.8192 45.6159 26.5092 46.4063 26.5092C47.076 26.5092 47.675 26.7963 47.675 26.892L47.6729 26.8899ZM44.2992 30.9562C43.7959 29.8081 42.8391 29.0655 41.4039 29.0655C39.5611 29.0655 38.3422 30.405 38.3422 32.51C38.3422 34.6149 39.586 35.9315 41.3561 35.9315C42.9597 35.9315 44.2992 34.7834 44.2992 33.1319V30.9562Z" fill="#231F20"/>
<path d="M9.33693 15.5395C9.60525 15.5395 9.87565 15.6476 10.0358 15.7912C9.64062 16.3299 9.31822 17.1723 9.31822 18.3204C9.31822 20.1321 10.6286 20.9744 13.0497 20.9744C15.9367 20.9744 17.1389 19.9885 17.4259 18.5534C17.0141 18.7676 16.386 18.9298 15.685 18.9298C13.5135 18.9298 12.0076 17.4593 12.0076 15.4147C12.0076 13.3701 13.4615 11.8267 15.4167 11.8267C17.8024 11.8267 19.3083 13.9254 19.3083 17.4593C19.3083 21.7108 17.3178 23.4871 12.9935 23.4871C9.1539 23.4871 7.25281 21.8896 7.25281 18.9298C7.25281 16.7771 8.38223 15.5395 9.33278 15.5395H9.33693ZM15.113 9.96099C15.113 10.7139 14.6825 11.1799 13.9108 11.1799C13.605 11.1799 13.2473 11.0904 12.9603 10.9469C12.8167 10.6411 12.7439 10.3187 12.7439 10.0317C12.7439 9.26004 13.2473 8.84821 13.9628 8.84821C14.2686 8.84821 14.6076 8.93764 14.9133 9.06244C15.0381 9.3682 15.1109 9.69059 15.1109 9.95891L15.113 9.96099ZM15.633 16.7063C16.2965 16.7063 16.9434 16.5441 17.3012 16.3486C17.2117 14.8593 16.44 13.9629 15.3273 13.9629C14.3954 13.9629 13.7486 14.591 13.7486 15.3793C13.7486 16.1676 14.4474 16.7063 15.633 16.7063ZM18.0915 9.96099C18.0915 10.7139 17.6797 11.1799 16.908 11.1799C16.5856 11.1799 16.2445 11.0904 15.9575 10.9469C15.7953 10.6411 15.7245 10.3187 15.7245 10.0317C15.7245 9.26004 16.2445 8.84821 16.9621 8.84821C17.2679 8.84821 17.6069 8.93764 17.8939 9.06244C18.0375 9.3682 18.0915 9.69059 18.0915 9.95891V9.96099Z" fill="#231F20"/>
<path d="M23.1334 20.6874C24.6393 20.6874 25.7521 19.9511 26.1119 18.9298H25.1967C22.5427 18.9298 20.8912 17.5487 20.8912 15.3772C20.8912 13.368 22.3264 11.8434 24.2275 11.8434C26.3803 11.8434 27.7967 13.5302 28.0484 16.5254H28.766C29.1071 16.5254 29.2693 16.9559 29.2693 17.7442C29.2693 18.5325 29.1071 19.0546 28.766 19.0546H27.9943C27.5638 21.5298 25.9663 23.1813 23.2769 23.1813C21.4466 23.1813 20.4794 22.3015 20.4794 21.3155C20.4794 20.7768 20.8018 20.3463 21.2864 20.132C21.6088 20.4544 22.3264 20.6874 23.1334 20.6874ZM26.1639 16.6169C26.0745 14.876 25.3216 13.9254 24.19 13.9254C23.2582 13.9254 22.6113 14.4808 22.6113 15.2878C22.6113 16.0948 23.1667 16.6148 24.7288 16.6148H26.1639V16.6169Z" fill="#231F20"/>
<path d="M42.9368 17.7651C42.9368 18.5367 42.7579 19.0567 42.4709 19.0567C41.1792 19.0567 40.3722 18.6449 39.8875 17.5862C39.5651 18.518 38.8475 19.0567 37.8596 19.0567C36.7655 19.0567 35.9938 18.5367 35.7255 17.6569C35.3844 18.518 34.5961 19.0567 33.5374 19.0567C32.5515 19.0567 31.7257 18.5367 31.4574 17.6569C31.0456 18.5721 30.147 19.0567 28.7846 19.0567C28.4622 19.0567 28.3187 18.5721 28.3187 17.7651C28.3187 17.0287 28.481 16.5275 28.7846 16.5275C29.86 16.5275 30.2385 16.1323 30.2385 15.344C30.2385 14.9675 30.2032 14.5557 30.2032 14.1605C30.2032 13.551 30.6525 13.1018 31.4054 13.1018C31.7465 13.1018 32.0876 13.2265 32.2312 13.3347V14.4641C32.2312 15.97 32.6617 16.5275 33.5415 16.5275C34.2404 16.5275 34.5462 16.1323 34.5462 15.3793C34.5462 14.9675 34.5275 14.5723 34.5275 14.1417C34.5275 13.5323 35.0121 13.1184 35.711 13.1184C36.0708 13.1184 36.3932 13.2265 36.5367 13.3326V14.4808C36.5367 16.0054 36.9485 16.5254 37.7556 16.5254C38.3837 16.5254 38.6874 16.1676 38.6874 15.2691C38.6874 14.6056 38.652 14.2291 38.6333 13.4761C38.6333 12.8126 39.1179 12.3821 39.8522 12.3821C40.1933 12.3821 40.5157 12.5069 40.6592 12.615V14.3185C40.6592 15.968 41.2146 16.5254 42.4709 16.5254C42.7579 16.5254 42.9368 16.9747 42.9368 17.763V17.7651Z" fill="#231F20"/>
<path d="M47.2611 14.643C47.2611 17.5134 45.7178 19.0567 42.8848 19.0567H42.473C42.1506 19.0567 42.0071 18.5554 42.0071 17.7838C42.0071 17.0121 42.1506 16.5275 42.473 16.5275H42.8682C44.6091 16.5275 45.2726 16.0428 45.2726 14.8406C45.2726 14.123 45.0397 13.4242 44.6279 12.5797C44.3949 12.0951 44.216 11.7373 44.216 11.3421C44.216 10.6432 44.7714 9.961 45.9923 9.94228C46.7993 11.3587 47.2653 13.0643 47.2653 14.643H47.2611ZM44.8566 7.91639C44.8566 8.66934 44.4448 9.13525 43.6731 9.13525C43.3507 9.13525 43.0096 9.04581 42.7226 8.88357C42.5604 8.59654 42.4896 8.27414 42.4896 7.98711C42.4896 7.21544 43.0096 6.78488 43.7272 6.78488C44.033 6.78488 44.372 6.87432 44.659 6.99912C44.8026 7.32152 44.8566 7.64391 44.8566 7.91431V7.91639ZM47.8539 7.91639C47.8539 8.66934 47.4233 9.13525 46.6704 9.13525C46.348 9.13525 45.9882 9.04581 45.7198 8.88357C45.5576 8.59654 45.4869 8.27414 45.4869 7.98711C45.4869 7.21544 45.9882 6.78488 46.7057 6.78488C47.0115 6.78488 47.3505 6.87432 47.6563 6.99912C47.7811 7.32152 47.8539 7.64391 47.8539 7.91431V7.91639Z" fill="#231F20"/>
<defs>
<linearGradient id="paint0_linear_42_51" x1="53.7964" y1="24.5" x2="102.796" y2="24.5" gradientUnits="userSpaceOnUse">
<stop offset="0.3" stop-color="#87C65B"/>
<stop offset="0.54" stop-color="#5BB578"/>
<stop offset="0.96" stop-color="#0797B1"/>
</linearGradient>
</defs>
</svg>
