<svg width="16" height="16" viewBox="0 0 16 16" fill="none" xmlns="http://www.w3.org/2000/svg">
<g clip-path="url(#clip0_181_846)">
<path d="M15.3335 8C15.3335 8 12.6668 2.66666 8.00016 2.66666C3.3335 2.66666 0.666829 8 0.666829 8C0.666829 8 3.3335 13.3333 8.00016 13.3333C12.6668 13.3333 15.3335 8 15.3335 8Z" stroke="#7D879C" stroke-width="1.5" stroke-linecap="round" stroke-linejoin="round"/>
<path d="M8 10C6.89543 10 6 9.10457 6 8C6 6.89543 6.89543 6 8 6C9.10457 6 10 6.89543 10 8C10 9.10457 9.10457 10 8 10Z" stroke="#7D879C" stroke-width="1.5" stroke-linecap="round" stroke-linejoin="round"/>
</g>
<defs>
<clipPath id="clip0_181_846">
<rect width="16" height="16" fill="white" transform="matrix(-1 0 0 1 16 0)"/>
</clipPath>
</defs>
</svg>
