<svg width="607" height="589" viewBox="0 0 607 589" fill="none" xmlns="http://www.w3.org/2000/svg">
<path opacity="0.2" d="M606.786 37.7189C606.759 33.417 606.607 29.1156 606.373 24.8149C605.535 10.3829 593.145 -0.63121 578.673 0.197497C564.2 1.0262 553.16 13.3762 553.998 27.8082C557.677 91.6151 530.258 157.671 482.447 200.267C453.406 226.166 416.512 243.588 377.854 250.845C378.016 250.265 378.137 249.727 378.3 249.147C389.101 205.525 387.327 160.984 373.216 120.361C364.005 93.899 348.461 69.3763 329.43 51.3271C306.686 29.7419 279.895 17.8186 251.929 16.8229C200.894 15.0511 151.642 52.8154 137.284 104.731C124.67 150.39 138.356 202.556 173.029 240.867C201.895 272.758 244.721 294.93 293.683 303.291C294.222 303.37 294.721 303.45 295.261 303.571C289.994 310.386 284.185 316.79 277.875 322.701C249.914 348.883 212.637 364.653 174.248 368.558C172.546 361.784 170.43 355.095 167.899 348.491C159.212 325.955 146.822 308.446 131.149 296.458C109.848 280.201 82.2716 275.149 59.2164 283.267C30.2836 293.446 12.2218 323.748 18.1676 352.256C22.8737 374.939 40.1178 392.627 69.3578 404.867C87.6586 412.496 106.981 417.596 126.825 420.086C125.66 439.246 120.262 458.182 110.866 474.659C92.6486 506.575 58.7399 530.269 22.3978 536.437C8.05961 538.836 -1.52099 552.336 0.891652 566.552C3.34603 580.809 16.8884 590.369 31.1851 587.969C83.3984 579.103 130.235 546.4 156.412 500.538C170.362 476.092 178.112 448.497 179.43 420.649C185.607 420.034 191.783 419.171 197.957 418.06C242.335 410.066 282.408 390.308 313.792 360.88C330.618 345.146 344.814 326.779 356.01 306.403C375.085 305.093 394.187 301.755 412.78 296.435C451.828 285.246 488.002 265.511 517.415 239.32C546.827 213.13 570.593 179.485 586.08 142.083C599.891 108.744 606.967 72.962 606.745 37.8018L606.786 37.7189ZM185.168 139.614C185.123 132.417 185.991 125.379 187.857 118.667C195.807 89.954 223.131 68.1605 250.102 69.1207C284.706 70.326 312.472 105.409 323.626 137.527C336.597 174.888 335.367 216.717 322.08 254.189C315.523 253.731 308.963 252.942 302.485 251.821C265.109 245.42 232.94 229.143 211.969 205.934C194.883 187.046 185.313 162.654 185.168 139.655L185.168 139.614ZM69.413 341.203C69.3974 338.722 72.4379 334.071 76.6184 332.599C82.9928 330.369 92.0497 332.509 99.2193 337.969C106.764 343.717 113.17 353.028 118.227 365.574C108.423 363.48 98.7803 360.475 89.5053 356.64C75.7798 350.929 70.1425 345.046 69.4577 341.7C69.4566 341.534 69.4141 341.369 69.413 341.203Z" fill="url(#paint0_linear_69_5)"/>
<defs>
<linearGradient id="paint0_linear_69_5" x1="-1.15732" y1="296.016" x2="608.389" y2="292.176" gradientUnits="userSpaceOnUse">
<stop stop-color="#86C55A"/>
<stop offset="1" stop-color="#0798AC"/>
</linearGradient>
</defs>
</svg>
